<svg width="159" height="79" viewBox="0 0 159 79" fill="none" xmlns="http://www.w3.org/2000/svg">
<path d="M14.4219 50V15.875H24.1719C27.5938 15.875 30.1719 16.8125 31.9062 18.6875C33.6406 20.5625 34.5078 23 34.5078 26C34.5078 29 33.6406 31.4531 31.9062 33.3594C30.1719 35.25 27.5938 36.1953 24.1719 36.1953H17.75V50H14.4219ZM17.75 33.3125H24.1719C26.7656 33.3125 28.5781 32.6016 29.6094 31.1797C30.6406 29.7578 31.1562 28.0312 31.1562 26C31.1562 23.9688 30.6406 22.2578 29.6094 20.8672C28.5781 19.4609 26.7656 18.75 24.1719 18.7344H17.75V33.3125ZM37.0391 39.0078V38.2578C37.0391 34.8359 37.9844 32.0625 39.875 29.9375C41.7656 27.8125 44.2812 26.75 47.4219 26.75C50.5781 26.75 53.0938 27.8125 54.9688 29.9375C56.8594 32.0625 57.8047 34.8359 57.8047 38.2578V39.0078C57.8047 42.4609 56.8594 45.25 54.9688 47.375C53.0938 49.5 50.5781 50.5625 47.4219 50.5625C44.2656 50.5625 41.7422 49.5 39.8516 47.375C37.9766 45.25 37.0391 42.4609 37.0391 39.0078ZM40.3672 38.2812V39.0078C40.3672 41.5234 40.9609 43.6172 42.1484 45.2891C43.3516 46.9453 45.1094 47.7734 47.4219 47.7734C49.75 47.7734 51.5078 46.9453 52.6953 45.2891C53.8828 43.6172 54.4766 41.5234 54.4766 39.0078V38.2812C54.4766 35.75 53.8828 33.6641 52.6953 32.0234C51.5078 30.3828 49.75 29.5625 47.4219 29.5625C45.1094 29.5625 43.3516 30.3828 42.1484 32.0234C40.9609 33.6641 40.3672 35.75 40.3672 38.2812ZM44.6328 22.25L50.2109 15.5469L53.0938 17.6562L46.5547 23.8203L44.6328 22.25ZM62.7969 50V15.875H80.3984V18.7344H66.125V31.3672H78.5703V34.2266H66.125V50H62.7969ZM82.1094 43.4609C82.1094 41.2266 82.9844 39.4609 84.7344 38.1641C86.4844 36.8516 88.7812 36.1953 91.625 36.1953H96.9453V34.1797C96.9453 32.6953 96.5547 31.5469 95.7734 30.7344C95.0078 29.9219 93.7188 29.5156 91.9062 29.5156C90.125 29.5156 88.7969 29.8672 87.9219 30.5703C87.0469 31.2578 86.6094 32.1797 86.6094 33.3359V33.7109H83.375V33.1484C83.375 31.3984 84.1406 29.8984 85.6719 28.6484C87.2188 27.3828 89.3203 26.75 91.9766 26.75C94.5703 26.75 96.5859 27.3438 98.0234 28.5312C99.4609 29.7031 100.18 31.5859 100.18 34.1797V44.375C100.18 45.3906 100.25 46.3516 100.391 47.2578C100.531 48.1641 100.75 48.9531 101.047 49.625V50H97.9766C97.7422 49.5938 97.5391 49.0781 97.3672 48.4531C97.1953 47.8281 97.0781 47.2031 97.0156 46.5781C96.4844 47.5625 95.6016 48.4453 94.3672 49.2266C93.1328 49.9922 91.5469 50.375 89.6094 50.375C87.3906 50.375 85.5859 49.7891 84.1953 48.6172C82.8047 47.4297 82.1094 45.7109 82.1094 43.4609ZM85.3438 43.3438C85.3438 44.7344 85.7578 45.7969 86.5859 46.5312C87.4141 47.25 88.6328 47.6094 90.2422 47.6094C91.9297 47.6094 93.4688 47.0391 94.8594 45.8984C96.25 44.7422 96.9453 43.4688 96.9453 42.0781V38.7266H92.0703C89.8047 38.7266 88.1172 39.1406 87.0078 39.9688C85.8984 40.7969 85.3438 41.9219 85.3438 43.3438ZM106.273 50V15.1016H109.508V50H106.273ZM114.312 43.4609C114.312 41.2266 115.188 39.4609 116.938 38.1641C118.688 36.8516 120.984 36.1953 123.828 36.1953H129.148V34.1797C129.148 32.6953 128.758 31.5469 127.977 30.7344C127.211 29.9219 125.922 29.5156 124.109 29.5156C122.328 29.5156 121 29.8672 120.125 30.5703C119.25 31.2578 118.812 32.1797 118.812 33.3359V33.7109H115.578V33.1484C115.578 31.3984 116.344 29.8984 117.875 28.6484C119.422 27.3828 121.523 26.75 124.18 26.75C126.773 26.75 128.789 27.3438 130.227 28.5312C131.664 29.7031 132.383 31.5859 132.383 34.1797V44.375C132.383 45.3906 132.453 46.3516 132.594 47.2578C132.734 48.1641 132.953 48.9531 133.25 49.625V50H130.18C129.945 49.5938 129.742 49.0781 129.57 48.4531C129.398 47.8281 129.281 47.2031 129.219 46.5781C128.688 47.5625 127.805 48.4453 126.57 49.2266C125.336 49.9922 123.75 50.375 121.812 50.375C119.594 50.375 117.789 49.7891 116.398 48.6172C115.008 47.4297 114.312 45.7109 114.312 43.4609ZM117.547 43.3438C117.547 44.7344 117.961 45.7969 118.789 46.5312C119.617 47.25 120.836 47.6094 122.445 47.6094C124.133 47.6094 125.672 47.0391 127.062 45.8984C128.453 44.7422 129.148 43.4688 129.148 42.0781V38.7266H124.273C122.008 38.7266 120.32 39.1406 119.211 39.9688C118.102 40.7969 117.547 41.9219 117.547 43.3438ZM139.719 48.1719C139.719 47.5312 139.914 46.9844 140.305 46.5312C140.711 46.0625 141.281 45.8281 142.016 45.8281C142.766 45.8281 143.336 46.0547 143.727 46.5078C144.133 46.9609 144.336 47.5156 144.336 48.1719C144.336 48.8125 144.133 49.3672 143.727 49.8359C143.336 50.2891 142.766 50.5156 142.016 50.5156C141.281 50.5156 140.711 50.2891 140.305 49.8359C139.914 49.3672 139.719 48.8125 139.719 48.1719ZM140.609 40.625L140.352 15.875H143.727L143.445 40.625H140.609Z" fill="url(#paint0_linear_4_8)"/>
<path d="M1 6V76L11.7745 64.1579H153C155.761 64.1579 158 61.9193 158 59.1579V6C158 3.23858 155.761 1 153 1H6C3.23858 1 1 3.23858 1 6Z" stroke="url(#paint1_linear_4_8)" stroke-width="2"/>
<defs>
<linearGradient id="paint0_linear_4_8" x1="167.158" y1="5.99999" x2="-30.79" y2="58.6609" gradientUnits="userSpaceOnUse">
<stop stop-color="#4ED9B1"/>
<stop offset="1" stop-color="#47BCE6"/>
</linearGradient>
<linearGradient id="paint1_linear_4_8" x1="163.387" y1="-7.88158" x2="-19.1988" y2="60.0788" gradientUnits="userSpaceOnUse">
<stop stop-color="#4ED9B1"/>
<stop offset="1" stop-color="#47BCE6" stop-opacity="0.5"/>
</linearGradient>
</defs>
</svg>
